<?xml version="1.0" encoding="UTF-8"?>
<svg width="1200px" height="888px" viewBox="0 0 1200 888" version="1.1" xmlns="http://www.w3.org/2000/svg" xmlns:xlink="http://www.w3.org/1999/xlink">
    <!-- Generator: Sketch 58 (84663) - https://sketch.com -->
    <title>Trellis</title>
    <desc>Created with Sketch.</desc>
    <g id="Trellis" stroke="none" stroke-width="1" fill="none" fill-rule="evenodd">
        <rect fill="#FFFFFF" x="0" y="0" width="1200" height="888"></rect>
        <g id="Group-5" transform="translate(518.000000, 200.000000)">
            <g id="Image" transform="translate(0.000000, 102.000000)">
                <g id="Group-3" transform="translate(266.500000, 193.000000) scale(-1, 1) translate(-266.500000, -193.000000) ">
                    <g id="Humaaan" transform="translate(399.500000, 193.000000) scale(-1, 1) translate(-399.500000, -193.000000) translate(266.000000, 1.000000)">
                        <g id="Head/Front/Chongo" transform="translate(114.043637, 54.620196) rotate(-8.000000) translate(-114.043637, -54.620196) translate(53.523637, 8.479350)">
                            <g id="Head" stroke-width="1" transform="translate(48.044118, 27.423077)" fill="#B28B67">
                                <path d="M33.9363552,8.08001758 C39.0920324,17.6348561 38.4794039,41.8714963 31.8161505,43.5792125 C29.1588512,44.2602481 23.4980102,42.5919809 17.736598,39.1391819 L21.3529412,64.5769231 L0,64.5769231 L7.35071317,30.5101694 C3.25118289,25.725565 0.476568002,19.8620107 0.940220121,13.2917477 C2.27616145,-5.63944128 28.780678,-1.47482091 33.9363552,8.08001758 Z"></path>
                            </g>
                            <path d="M73.5461978,25.0965175 C70.6284593,24.2119021 66.3929282,23.9119007 64.6111662,24.1148491 C65.6247136,21.7003619 66.0269041,19.0103327 65.6990218,16.3911143 C65.3803343,13.8460584 64.2365602,11.6790172 63.1787412,9.40821973 C62.6911405,8.36153073 62.1385627,7.32054654 61.3147021,6.51994854 C60.4754486,5.70430412 59.4130661,5.16591319 58.2990562,4.90905437 C57.1590282,4.6461342 55.966964,4.66802638 54.8251651,4.90662983 C54.3200601,5.01216871 53.8668551,5.24178709 53.3714898,5.36943209 C52.8642053,5.50021474 52.6181232,5.18452512 52.2499196,4.86726668 C51.3625804,4.10282288 50.0617442,3.72545006 48.9391524,3.59038882 C47.6796592,3.43892626 46.3727612,3.6278266 45.1715703,4.03949955 C44.0023911,4.44026206 42.8791863,5.09103763 42.033871,6.03910483 C41.6574942,6.46111774 41.3158536,6.94146228 41.0938144,7.47179516 C41.0027511,7.68943346 40.9876988,7.81836204 40.7692695,7.89808668 C40.5672547,7.97189259 40.3309805,7.97403189 40.1224953,8.04427229 C38.1065705,8.72314403 36.3829746,10.2718558 35.4444846,12.2603367 C34.8969469,13.4204087 34.6375834,15.4628855 34.7086223,17.7521664 C34.7796612,20.0414472 36.858656,26.0148343 38.8031332,28.1936417 C40.5387847,30.1384096 43.0899873,31.4217766 45.5521018,31.9835573 C43.9178664,33.8408277 42.8300108,36.1616848 42.0255616,38.5220476 C41.1517762,41.0860007 40.6109815,43.7500731 40.4112824,46.4644903 C40.2215956,49.0434898 40.2040232,51.7708142 40.8121108,54.2947623 C41.3809669,56.6550539 42.5974827,58.5913358 44.6283236,59.8197229 C45.5585723,60.3824305 46.5594512,60.8051565 47.5661195,61.1915144 C48.5582122,61.5722388 49.5533018,61.9424093 50.5925268,62.1560542 C52.5593441,62.5602396 54.8255738,62.4908549 56.3406164,60.934299 C56.8866556,60.3731602 57.487183,59.6680464 57.8855594,58.9825428 C58.0287951,58.7360239 58.1151588,58.5747919 57.9411373,58.3338352 C57.7326521,58.0452434 57.3954386,57.8241109 57.1276294,57.5983433 C55.6003951,56.3111255 54.6550259,54.5926958 54.4167085,52.5505184 C54.1749174,50.4784621 54.7347148,47.8039784 56.7608562,46.8996956 C59.2619297,45.783408 62.0163049,47.0647071 64.2392846,48.2590792 C65.1840408,44.9437321 67.1238865,41.9586218 70.1652099,40.4378636 C73.5299204,38.7554454 77.3908816,38.5585584 80.8486305,37.1150289 C81.74966,36.7388683 82.6673764,36.3118637 83.3307694,35.5454233 C83.6079778,35.2250985 83.9332039,34.8095748 84.0438829,34.3859217 C84.1892981,33.8294181 83.8283142,33.3628364 83.5494712,32.928986 C82.0709356,30.6285949 76.4639363,25.9811329 73.5461978,25.0965175 Z" id="hair" fill="#191847"></path>
                        </g>
                        <g id="Bottom/Standing/Jogging" transform="translate(0.000000, 171.929577)">
                            <polygon id="Leg" fill="#997659" points="115.7 0 181.832708 110.192907 231.413212 203.351721 242.092412 203.351721 159.019582 4.51531526e-13"></polygon>
                            <g id="Accessories/Shoe/Flat-Sneaker" transform="translate(222.500000, 176.518828)" fill="#E4E4E4">
                                <path d="M2.28004921,22.4680239 C1.35018034,24.9605595 0.885245902,26.8353722 0.885245902,28.092462 C0.885245902,29.6703374 1.15118635,31.9728501 1.68306723,35 C3.53494727,35 20.178105,35 51.6125403,35 C52.9100303,30.7601938 52.1610439,28.4712589 49.3655809,28.1331953 C46.5701179,27.7951316 44.2478793,27.4898872 42.3988652,27.217462 L19.2938401,17.0363435 C18.7884459,16.8136439 18.1982092,17.0428133 17.9755097,17.5482075 C17.9728332,17.5542814 17.9702173,17.5603818 17.9676624,17.5665078 L16.5215329,21.0338582 L16.5215329,21.0338582 C13.9336653,22.2273206 11.8307543,22.8240519 10.2127997,22.8240519 C8.93655596,22.8240519 7.18822216,22.3294296 4.96779829,21.3401852 L4.96778998,21.3402038 C3.95883528,20.8906937 2.77651599,21.3442132 2.32700593,22.3531679 C2.31016951,22.3909584 2.29450973,22.4292621 2.28004921,22.4680239 Z" id="shoe"></path>
                            </g>
                            <path d="M217.64332,188.434194 L238.237971,182.224989 C229.214893,155.340893 218.15583,125.75593 205.060783,93.4701018 C191.965735,61.1842733 177.902141,30.0275727 162.87,2.84217094e-14 L104.703225,2.84217094e-14 C121.415733,37.9835007 139.133233,72.4963868 157.855724,103.538658 C176.578215,134.58093 196.507414,162.879442 217.64332,188.434194 Z" id="Pant" fill="#69AC73"></path>
                            <path d="M111.353799,2.84217094e-14 C105.112113,38.7225441 93.073611,88.1950766 91.937501,89.7218137 C91.1800944,90.7396384 63.9132597,99.8459673 10.1369971,117.040801 L12.4438333,126.426456 C76.5719003,117.204755 110.361923,110.050181 113.8139,104.962732 C118.991867,97.3315595 144.846152,37.0451257 154.86,2.84217094e-14 L111.353799,2.84217094e-14 Z" id="Leg" fill="#B28B67"></path>
                            <path d="M29.0402619,108.92762 L33.1035027,124.043896 C81.0675605,128.236601 110.456198,125.207108 121.269415,114.955418 C132.082633,104.703728 144.406509,66.3852551 158.241043,-1.13686838e-13 L102.77555,-1.13686838e-13 C94.0103145,54.3605913 89.1099774,82.6818857 88.0745387,84.9638832 C87.0391,87.2458806 67.3610078,95.2337928 29.0402619,108.92762 Z" id="Pant" fill="#B0CC89"></path>
                            <g id="Accessories/Shoe/Flat-Sneaker" transform="translate(21.805000, 136.602510) rotate(80.000000) translate(-21.805000, -136.602510) translate(-5.340000, 118.861925)" fill="#E4E4E4">
                                <path d="M2.28004921,22.4680239 C1.35018034,24.9605595 0.885245902,26.8353722 0.885245902,28.092462 C0.885245902,29.6703374 1.15118635,31.9728501 1.68306723,35 C3.53494727,35 20.178105,35 51.6125403,35 C52.9100303,30.7601938 52.1610439,28.4712589 49.3655809,28.1331953 C46.5701179,27.7951316 44.2478793,27.4898872 42.3988652,27.217462 L19.2938401,17.0363435 C18.7884459,16.8136439 18.1982092,17.0428133 17.9755097,17.5482075 C17.9728332,17.5542814 17.9702173,17.5603818 17.9676624,17.5665078 L16.5215329,21.0338582 L16.5215329,21.0338582 C13.9336653,22.2273206 11.8307543,22.8240519 10.2127997,22.8240519 C8.93655596,22.8240519 7.18822216,22.3294296 4.96779829,21.3401852 L4.96778998,21.3402038 C3.95883528,20.8906937 2.77651599,21.3442132 2.32700593,22.3531679 C2.31016951,22.3909584 2.29450973,22.4292621 2.28004921,22.4680239 Z" id="shoe"></path>
                            </g>
                        </g>
                        <g id="Body/Pointing-Forward" transform="translate(129.294852, 163.138234) rotate(-8.000000) translate(-129.294852, -163.138234) translate(15.374852, 80.173445)">
                            <path d="M212.464277,41.1962135 C216.323171,40.4043826 225.74163,33.4225365 227.364477,34.8401151 C229.765375,36.9373312 227.624587,43.3770001 225.10223,46.5803906 C220.387948,52.5675233 216.484725,54.614942 206.837305,57.2960492 C201.793135,58.6978704 196.339496,61.5077004 190.476387,65.7255391 L189.703125,52.1433871 L203.282059,44.708333 C205.187376,37.4821881 207.46495,33.8464702 210.114781,33.8011795 C212.150403,32.8571353 208.605382,41.9880443 212.464277,41.1962135 Z M189.09287,10.2454019 C186.599547,14.6562722 184.175973,19.4076116 185.446222,20.7665053 C186.716472,22.125399 189.883954,20.2270844 191.399342,22.4848978 C192.409602,23.9901068 186.99821,26.3679131 175.165167,29.6183169 L152.702815,50.1174792 L141.287004,37.9050194 L172.200403,21.0294675 C177.341112,14.9449021 182.406142,10.2193845 187.395494,6.85291487 C188.920079,6.21851546 191.586193,5.83453162 189.09287,10.2454019 Z" id="Skin" fill="#997659"></path>
                            <path d="M127.230937,30.8366913 C137.943326,32.4179339 152.561129,32.4253508 169.302774,25.2081223 L173.174912,39.4376588 C161.034308,48.1576292 144.924596,54.3505065 132.077124,51.9453884 C121.952609,50.0500227 118.696981,36.9661925 127.230937,30.8366913 Z" id="Sleeve" fill="#2C329B" transform="translate(147.754124, 38.838038) rotate(-9.000000) translate(-147.754124, -38.838038) "></path>
                            <path d="M126.953027,-1.42108547e-13 C128.31652,17.4600739 135.179321,36.7025754 140.811492,55.7127728 C152.305191,58.5708421 171.582236,55.2012997 198.641378,45.6042132 C205.352897,59.4435515 208.455464,69.3099384 207.949079,75.2033737 C184.734516,87.2899451 164.838022,92.6779427 148.446471,93.0325018 C148.97346,102.723237 147.789928,111.948327 143.812721,120.377489 C135.63745,137.703893 87.7666921,121.657711 71.6710764,124.815991 C61.5915286,92.1888725 81.0806393,78.9293432 81.0963205,58.0526108 C81.1134931,35.1903641 99.5312715,-1.42108547e-13 102.241079,-1.42108547e-13 L102.241079,-1.42108547e-13 Z" id="Clothes" fill="#4E55D3"></path>
                        </g>
                    </g>
                    <g id="Humaaan">
                        <g id="Head/Front/Long" transform="translate(146.854992, 53.957671) rotate(7.000000) translate(-146.854992, -53.957671) translate(86.334992, 7.816826)">
                            <path d="M65.3933824,23.8846154 C73.07065,23.8846154 79.7385176,28.2063706 83.0968596,34.5497555 C83.5604082,35.2080014 84.0325523,36.2477081 84.5220588,37.7646426 C87.6140224,47.3463457 92.5728713,76.2574081 88.185217,80.5198736 L62.3837464,80.5198736 L62.3706562,80.2732797 C52.7490499,78.816023 45.375,70.5099711 45.375,60.4816176 L45.375,43.9029977 C45.375,32.8471504 54.3375351,23.8846154 65.3933824,23.8846154 Z" id="Hair-Back" fill="#191847"></path>
                            <g id="Head" stroke-width="1" transform="translate(48.044118, 27.423077)" fill="#D4A181">
                                <path d="M33.9363552,8.08001758 C39.0920324,17.6348561 38.4794039,41.8714963 31.8161505,43.5792125 C29.1588512,44.2602481 23.4980102,42.5919809 17.736598,39.1391819 L21.3529412,64.5769231 L0,64.5769231 L7.35071317,30.5101694 C3.25118289,25.725565 0.476568002,19.8620107 0.940220121,13.2917477 C2.27616145,-5.63944128 28.780678,-1.47482091 33.9363552,8.08001758 Z"></path>
                            </g>
                            <path d="M64.9497913,24.7692308 C75.2526127,24.7692308 78.504609,29.5358235 81.2734588,33.5827297 C79.2029792,40.6464393 71.16801,41.6938505 64.0284142,46.0968317 C63.187364,45.4172633 62.1139903,45.0095962 60.9448529,45.0095962 C58.2423125,45.0095962 56.0514706,47.1879031 56.0514706,49.8749808 C56.0514706,52.5620585 58.2423125,54.7403654 60.9448529,54.7403654 C61.0195854,54.7403654 61.0939265,54.7386997 61.1678408,54.7354036 C62.1510274,65.2440312 61.7567796,77.2423305 58.8249229,80.0905354 L33.0234523,80.0905354 C31.5858711,55.2561596 45.4793347,64.8731416 45.4793347,41.4909319 L45.7620213,41.2151439 C46.5249401,40.4681693 47.2533789,39.7372363 47.9750141,39.0973268 L47.9452509,38.4106196 C52.4130636,29.3163604 58.0812437,24.7692308 64.9497913,24.7692308 Z" id="Hair-Front" fill="#191847"></path>
                        </g>
                        <g id="Bottom/Standing/Sprint" transform="translate(0.000000, 172.929577)">
                            <path d="M184.42016,-8.71184178 C167.458963,5.12357511 174.110571,126.67213 172.979408,128.200516 C172.476669,128.879799 145.571865,134.624332 92.2649963,145.434116 L94.5814345,154.844481 C156.952036,151.843263 189.951414,148.027919 193.579568,143.398449 C198.774045,136.770374 205.14875,99.6662017 212.703681,32.0859309 L184.42016,-8.71184178 Z" id="Leg" fill="#B28B67" transform="translate(152.484339, 73.066320) rotate(-55.000000) translate(-152.484339, -73.066320) "></path>
                            <path d="M101.27509,135.544338 L105.353016,150.700956 C151.857533,156.119072 182.499016,149.551171 193.271883,139.293401 C200.453794,132.454888 206.845223,95.4516105 212.446169,28.2835689 L182.190306,-14.9262819 C141.811419,15.5445162 166.065537,115.538883 165.036009,117.824385 C164.00648,120.109886 139.488459,121.879835 101.27509,135.544338 Z" id="Pant" fill="#4951A6" transform="translate(156.860630, 68.860375) rotate(-55.000000) translate(-156.860630, -68.860375) "></path>
                            <g id="Accessories/Shoe/Flat-Sneaker" transform="translate(198.811684, 166.122066) rotate(20.000000) translate(-198.811684, -166.122066) translate(171.666684, 148.381480)" fill="#E4E4E4">
                                <path d="M2.28004921,22.4680239 C1.35018034,24.9605595 0.885245902,26.8353722 0.885245902,28.092462 C0.885245902,29.6703374 1.15118635,31.9728501 1.68306723,35 C3.53494727,35 20.178105,35 51.6125403,35 C52.9100303,30.7601938 52.1610439,28.4712589 49.3655809,28.1331953 C46.5701179,27.7951316 44.2478793,27.4898872 42.3988652,27.217462 L19.2938401,17.0363435 C18.7884459,16.8136439 18.1982092,17.0428133 17.9755097,17.5482075 C17.9728332,17.5542814 17.9702173,17.5603818 17.9676624,17.5665078 L16.5215329,21.0338582 L16.5215329,21.0338582 C13.9336653,22.2273206 11.8307543,22.8240519 10.2127997,22.8240519 C8.93655596,22.8240519 7.18822216,22.3294296 4.96779829,21.3401852 L4.96778998,21.3402038 C3.95883528,20.8906937 2.77651599,21.3442132 2.32700593,22.3531679 C2.31016951,22.3909584 2.29450973,22.4292621 2.28004921,22.4680239 Z" id="shoe"></path>
                            </g>
                            <polygon id="Leg" fill="#997659" points="115.7 0 69.6460935 110.192907 24.3822715 203.351721 35.0614721 203.351721 151.899582 0"></polygon>
                            <g id="Accessories/Shoe/Flat-Sneaker" transform="translate(21.360000, 176.518828)" fill="#E4E4E4">
                                <path d="M2.28004921,22.4680239 C1.35018034,24.9605595 0.885245902,26.8353722 0.885245902,28.092462 C0.885245902,29.6703374 1.15118635,31.9728501 1.68306723,35 C3.53494727,35 20.178105,35 51.6125403,35 C52.9100303,30.7601938 52.1610439,28.4712589 49.3655809,28.1331953 C46.5701179,27.7951316 44.2478793,27.4898872 42.3988652,27.217462 L19.2938401,17.0363435 C18.7884459,16.8136439 18.1982092,17.0428133 17.9755097,17.5482075 C17.9728332,17.5542814 17.9702173,17.5603818 17.9676624,17.5665078 L16.5215329,21.0338582 L16.5215329,21.0338582 C13.9336653,22.2273206 11.8307543,22.8240519 10.2127997,22.8240519 C8.93655596,22.8240519 7.18822216,22.3294296 4.96779829,21.3401852 L4.96778998,21.3402038 C3.95883528,20.8906937 2.77651599,21.3442132 2.32700593,22.3531679 C2.31016951,22.3909584 2.29450973,22.4292621 2.28004921,22.4680239 Z" id="shoe"></path>
                            </g>
                            <path d="M28.4698084,183.999048 L52.1991105,188.434194 C70.5465402,161.550098 147.331283,51.3162756 155.75,2.84217094e-14 L102.923225,2.84217094e-14 C74.8088437,37.0964714 45.9586982,156.670237 28.4698084,183.999048 Z" id="Pant" fill="#7A98E3"></path>
                        </g>
                        <g id="Body/Jacket-2" transform="translate(133.500000, 162.725352) rotate(7.000000) translate(-133.500000, -162.725352) translate(19.580000, 79.760563)">
                            <path d="M45.8745644,72.7914439 L64.125,76.4006963 C45.7710734,110.493025 35.9281922,128.56198 34.5963565,130.607559 C31.5997262,135.210113 34.395643,143.645249 35.4284429,148.08725 C28.9492352,149.590518 31.5044357,139.870539 23.3051235,141.899982 C15.8211716,143.752364 9.47568283,148.506235 2.4972042,142.094881 C1.63924126,141.306643 1.01117182,138.842833 3.93640209,137.579157 C11.2242175,134.430879 21.9913509,128.535791 23.7372425,126.24708 C26.1180776,123.126014 33.4971849,105.307469 45.8745644,72.7914439 Z M226.386337,45.4992404 C223.516803,49.6767321 220.68698,54.1994564 221.83357,55.6635251 C222.980161,57.1275938 226.301583,55.5116606 227.613776,57.8925235 C228.488571,59.4797654 222.889849,61.3784383 210.81761,63.5885421 L186.648228,82.0584043 L176.34375,68.9007302 L208.615161,54.7748282 C214.26836,49.1599875 219.727329,44.8924489 224.992069,41.9722124 C226.566326,41.4726671 229.255871,41.3217486 226.386337,45.4992404 Z" id="Skin" fill="#B28B67"></path>
                            <path d="M109.809339,8.78101794 L117.366627,6.79820252 C135.490586,21.4928929 145.705761,59.7122982 157.291581,63.8759427 C168.245505,67.8125 182.75978,61.8059366 199.945837,53.906539 L206.437578,65.5305802 C191.838585,84.3231103 158.782177,102.012881 144.128761,94.8471575 C120.700995,83.3906547 111.374864,35.9663931 109.809339,8.78101794 Z" id="Coat-Back" fill="#E87613" transform="translate(158.123459, 51.637224) rotate(5.000000) translate(-158.123459, -51.637224) "></path>
                            <path d="M80.15625,101.197861 C111.035783,101.197861 133.750119,101.197861 148.299261,101.197861 C151.413049,101.197861 150.826315,96.7164265 150.376198,94.4550701 C145.181305,68.3562845 124.902412,40.2230565 124.902412,3.07209214 L105.246759,0 C88.98901,26.0614734 83.3667984,58.148424 80.15625,101.197861 Z" id="Shirt" fill="#DDE3E9"></path>
                            <path d="M107.526459,-9.9475983e-14 L111.761323,0 C129.406853,59.9525846 134.271413,99.8991087 126.355004,119.839572 L126.355004,119.839572 L65.015625,119.839572 C65.9861214,105.248142 69.0980091,89.8171325 73.3602833,74.7716738 C59.4688827,99.7480277 47.7920306,117.729608 38.3302246,128.716578 L24.046875,125.92815 C33.2475591,69.0548213 59.8915125,27.0787712 103.978735,-9.9475983e-14 L107.526459,-9.9475983e-14 Z" id="Coat-Front" fill="#F69B38"></path>
                        </g>
                    </g>
                </g>
            </g>
            <g id="drill" transform="translate(148.000000, 0.000000)">
                <g id="Group-4" transform="translate(126.000000, 115.000000) rotate(-23.000000) translate(-126.000000, -115.000000) translate(76.000000, 89.000000)">
                    <g id="Group-2" transform="translate(77.448024, 12.347150) rotate(8.000000) translate(-77.448024, -12.347150) translate(56.448024, 3.847150)" stroke-width="3">
                        <path d="M37.455577,11.1438517 L38.2351123,11.1834624 L38.7193789,11.6638384 L37.4974694,11.5467387 L37.455577,11.1438517 Z M28.5956943,10.6936516 L5.58437331,8.48839925 L5.41802508,7.31918473 C5.1684526,5.56501056 4.42681242,4.5 4,4.5 C3.41677558,4.5 2.5,6.18075524 2.5,8.5 C2.5,10.8192448 3.41677558,12.5 4,12.5 C4.30303072,12.5 4.85671671,11.8773111 5.20947122,10.662245 L5.54046353,9.52213893 L28.5956943,10.6936516 Z" id="Oval-2" stroke="#AFB9C5" fill="#AFB9C5" transform="translate(20.064338, 8.500000) rotate(-7.000000) translate(-20.064338, -8.500000) "></path>
                        <g id="Group" transform="translate(10.119741, 5.957750)" stroke="#C5CFD6">
                            <rect id="Rectangle" transform="translate(3.000000, 3.500000) rotate(-38.000000) translate(-3.000000, -3.500000) " x="3.5" y="1.5" width="1" height="4"></rect>
                            <rect id="Rectangle-Copy" transform="translate(8.000000, 3.500000) rotate(-38.000000) translate(-8.000000, -3.500000) " x="8.5" y="1.5" width="1" height="4"></rect>
                            <rect id="Rectangle-Copy-2" transform="translate(13.000000, 3.500000) rotate(-38.000000) translate(-13.000000, -3.500000) " x="13.5" y="1.5" width="1" height="4"></rect>
                            <rect id="Rectangle-Copy-3" transform="translate(18.000000, 3.500000) rotate(-38.000000) translate(-18.000000, -3.500000) " x="18.5" y="1.5" width="1" height="4"></rect>
                            <rect id="Rectangle-Copy-4" transform="translate(23.000000, 3.500000) rotate(-38.000000) translate(-23.000000, -3.500000) " x="23.5" y="1.5" width="1" height="4"></rect>
                            <rect id="Rectangle-Copy-5" transform="translate(28.000000, 3.500000) rotate(-38.000000) translate(-28.000000, -3.500000) " x="28.5" y="1.5" width="1" height="4"></rect>
                        </g>
                    </g>
                    <path d="M25.5735252,0.000378055477 C42.276779,0.0255837801 60.2204231,1.33620126 60.2204231,11.4024501 C60.2204231,21.5703782 51.9124503,22.8049002 35.0677655,22.8049002 C31.3787795,22.8049002 27.8427589,22.5257529 24.5696322,22.0143131 L24.5734042,22.3408503 L24.5734042,22.3408503 L24.5755108,22.8049002 C24.5755108,36.3358766 19.2474672,51.3049002 12.0677655,51.3049002 C4.88806373,51.3049002 8.51910786,29.1550887 2.15177834,20.4153091 C-2.50213312,14.0273626 1.10887074,7.21275345 6.19270276,4.00776126 C8.55055892,1.14940826 13.9217671,1.77635684e-14 25.0677655,1.77635684e-14 Z" id="Combined-Shape" fill="#FFBB21"></path>
                    <path d="M28.6210294,30.5609004 C27.9931888,29.7175217 27.6655921,28.5747279 27.6655921,26.9903587 C27.6655921,25.583472 27.8090447,24.295018 28.0925662,22.6616136 C28.1178245,22.516097 28.322964,21.3774299 28.3683686,21.0989531 C28.3827176,21.010948 28.3955452,20.9285548 28.406898,20.8514317 C27.7828161,21.1459983 26.956679,21.7010003 26.2346928,22.4103316 C24.8730154,23.7481415 24.0677655,25.3583854 24.0677655,26.9903587 C24.0677655,30.6864509 26.3393767,32.5937576 28.1692535,30.9678055 C28.3431022,30.8133308 28.4929794,30.6782809 28.6210294,30.5609004 Z" id="Oval" stroke="#C5CFD6" stroke-width="3" fill="#AFB9C5"></path>
                </g>
                <circle id="Oval" stroke="#254435" stroke-width="8" cx="114" cy="112" r="81"></circle>
                <path d="M102,9.65685425 L102,52.5685425 L123.455844,31.1126984 L102,9.65685425 Z" id="Combined-Shape" stroke="#254435" stroke-width="8" fill="#254435"></path>
                <path d="M20,93.6568542 L20,136.568542 L41.4558441,115.112698 L20,93.6568542 Z" id="Combined-Shape-Copy" stroke="#254435" stroke-width="8" fill="#254435" transform="translate(31.556349, 115.112698) rotate(-90.000000) translate(-31.556349, -115.112698) "></path>
                <path d="M102,175.656854 L102,218.568542 L123.455844,197.112698 L102,175.656854 Z" id="Combined-Shape-Copy-2" stroke="#254435" stroke-width="8" fill="#254435" transform="translate(113.556349, 197.112698) rotate(-180.000000) translate(-113.556349, -197.112698) "></path>
                <path d="M184,90.6568542 L184,133.568542 L205.455844,112.112698 L184,90.6568542 Z" id="Combined-Shape-Copy-3" stroke="#254435" stroke-width="8" fill="#254435" transform="translate(195.556349, 112.112698) rotate(-270.000000) translate(-195.556349, -112.112698) "></path>
            </g>
        </g>
        <g id="Content" transform="translate(150.000000, 296.000000)">
            <g id="List-Item" transform="translate(0.000000, 219.000000)" fill="#191847" font-family="AvenirNext-Regular, Avenir Next" font-size="18" font-weight="normal" line-spacing="26">
                <text id="List-Text">
                    <tspan x="0" y="18">My Focus: UX Researcher, UX Designer, </tspan>
                    <tspan x="0" y="44">Front-End Developer, and Project </tspan>
                    <tspan x="0" y="70">Manager</tspan>
                </text>
            </g>
            <text id="Subtitle" font-family="Lato-Italic, Lato" font-size="18" font-style="italic" font-weight="normal" line-spacing="26" fill="#191847">
                <tspan x="0" y="18">case-study</tspan>
            </text>
            <text id="Subtitle-Copy" font-family="AvenirNext-Regular, Avenir Next" font-size="27" font-weight="normal" line-spacing="26" fill="#202C26">
                <tspan x="0" y="138">Rent things from people in </tspan>
                <tspan x="0" y="164">your community</tspan>
            </text>
            <text id="Title" font-family="Lora-Bold, Lora" font-size="60" font-weight="bold" line-spacing="61" fill="#202C26">
                <tspan x="0" y="102">Trellis</tspan>
            </text>
        </g>
        <g id="Corner-Plants" transform="translate(917.000000, -41.000000)">
            <path d="M190.716721,208.509825 C196.732884,203.629717 203.575049,199.731348 210.203409,195.767033 C220.849848,189.399597 231.320791,185.132113 243.762039,185.475982 C263.995419,186.03457 282.238166,192.867025 298.855611,203.725859 C307.517545,209.385906 315.872319,216.025501 322.435261,224.066306 C325.355801,227.645545 328.032972,231.41639 330.622971,235.241171 C332.223721,237.603675 333.743345,240.01779 335.240967,242.447172 C336.142111,243.909943 338.071444,245.985264 338.149189,247.775917 C338.242593,249.92745 335.904828,251.57084 333.973036,250.525994 C332.327503,249.636721 331.316737,246.893715 330.321113,245.34757 C328.030726,241.788833 325.562113,238.361762 323.010213,234.989346 C319.025239,229.724921 314.71619,224.976299 309.711786,220.691073 C299.569479,212.006954 287.63067,204.935594 275.284552,199.808971 C273.771119,211.822758 266.891392,220.726241 256.513245,226.751522 C241.738986,235.329139 226.924012,239.696171 209.90779,238.442301 C198.856593,237.628349 189.880757,232.670711 181.912725,225.332208 C180.405905,223.944575 178.498943,221.795618 179.106196,219.49771 C179.690365,217.285629 182.560269,215.535778 184.182391,214.074147 C186.310916,212.157219 188.492472,210.31406 190.716721,208.509825 Z" id="Fill-16" fill="#DDE3E9" transform="translate(258.571167, 218.152724) rotate(-30.000000) translate(-258.571167, -218.152724) "></path>
            <path d="M210.239311,238.454697 C207.933396,219.994942 205.491281,201.641045 201.007892,183.542046 C198.365243,172.876538 194.975618,162.436202 191.896814,151.892357 C192.172456,153.215071 192.416247,154.546332 192.627678,155.881131 C191.556052,152.736551 189.314835,149.729827 188.026974,146.596466 C186.590493,143.101929 185.436099,139.471837 184.339724,135.863241 C182.199203,128.820392 180.179903,121.765408 177.770183,114.803481 C175.084861,107.047022 171.991624,99.419718 169.109531,91.7315885 C166.663467,85.2066725 164.373316,78.3558875 161.186886,72.1298028 C159.450371,68.7362609 157.893843,65.0909944 156.189231,61.6317769 C155.618634,60.4741965 150.725374,47.5411267 150.762353,47.5410936 C151.573328,47.5403663 154.609702,53.2885155 155.112785,54.1329555 C156.583061,56.59916 157.831884,59.1657874 159.094057,61.7374142 C159.642759,58.6820844 160.509835,55.6906127 161.873912,52.8811036 C162.294816,52.0137857 165.249652,45.6178256 166.210085,45.6169643 C166.689788,45.6165341 162.246057,57.6935424 161.684767,58.753918 C161.228944,59.6152538 160.375387,60.7074623 160.077703,61.6237796 C159.596671,63.1035222 159.844045,62.7334726 160.238832,64.0676055 C160.962352,66.5129315 162.566229,68.9068547 163.574884,71.2547074 C164.128446,72.5080173 165.491746,76.8525218 166.820222,78.7976869 C170.239419,85.4780802 172.66605,93.6251445 175.267124,100.829944 C175.831157,97.2885122 176.803901,93.8734979 178.149959,90.5403328 C178.469102,89.7487755 181.009802,82.4045635 181.739628,82.403909 C182.560875,82.4031725 179.405537,94.1648221 178.977309,95.1809797 C178.182101,97.0684159 176.932926,98.8956235 176.271224,100.816515 C175.545154,102.924884 176.815638,104.820991 177.624162,106.976092 C180.598487,114.904677 183.205003,122.912769 185.585951,131.028805 C199.461176,124.952288 202.235243,107.102352 203.15203,93.9400709 C203.812311,84.4537468 202.350037,74.795437 200.052238,65.5959016 C196.985777,53.3181642 191.818823,41.4667605 186.335608,30.0571285 C179.946556,16.7625882 171.154632,4.89138372 160.550435,-5.5119135 C155.004336,-10.95313 148.68667,-15.6675293 142.269612,-20.0846743 C139.134996,-22.2426998 135.914279,-24.0333259 132.253902,-25.2322341 C130.603677,-25.7719656 128.909661,-26.1623236 127.197074,-26.4609596 C125.895815,-26.687803 123.241584,-27.8901192 122.162234,-27.5819636 C113.348721,-25.1406129 106.721695,-21.0871101 101.579959,-13.5581572 C96.7123337,-6.43134978 93.6872823,2.08642238 92.0023595,10.4411304 C90.1265524,19.7446329 89.6676997,29.1235364 91.2622364,38.4835602 C92.4787023,45.6249563 94.5817684,52.6252433 96.6879778,59.5568738 C104.178769,84.2108542 117.32373,110.637744 140.940787,124.144343 C148.585389,128.51679 157.069821,131.06891 165.780804,132.418136 C167.833378,132.736011 169.883911,133.038353 171.961319,133.153251 C173.361836,133.231172 177.967097,132.298464 178.979889,132.900405 C180.368435,133.725509 181.162359,138.412791 181.766367,140.112054 C186.355592,153.027356 190.458307,166.089421 194.179825,179.26859 C198.138896,193.290433 201.281221,207.449313 203.89645,221.766519 C205.008572,227.856155 206.091942,233.935793 207.01349,240.058674 C207.228436,241.48317 207.000994,245.964404 208.392748,247.221472 C209.272857,248.016464 210.518118,247.689117 211.042865,246.714466 C211.955514,245.019856 210.47541,240.344716 210.239311,238.454697" id="Leaf" fill="#D5E2C1" transform="translate(150.814803, 110.017783) rotate(-67.000000) translate(-150.814803, -110.017783) "></path>
            <path d="M220.394433,147.476088 C219.922124,146.931322 209.707061,142.352383 210.29945,141.401994 C210.553826,140.993889 214.458471,142.853685 214.982679,143.131145 C217.056072,144.22956 218.822069,145.769267 220.394433,147.476088 Z M238.907439,136.075002 C238.894574,136.147024 240.248581,138.450214 240.617133,139.158384 C241.401733,140.663839 242.126107,142.198898 242.807554,143.73655 C241.798647,141.020448 240.762086,138.501368 238.907439,136.075002 Z M144.226035,154.822575 C142.922063,155.243592 141.354279,153.584258 143.045667,153.175544 C144.414236,152.84748 144.347119,152.770135 144.961631,151.665001 C145.460629,150.767593 145.768047,149.673068 146.205926,148.731335 C147.13473,146.733855 148.188296,144.828929 149.481541,143.043954 C152.253167,139.217458 155.630143,135.920201 159.417671,133.141635 C166.027613,128.293037 173.43898,123.861475 181.300802,121.635079 C193.801209,118.095011 208.028379,117.875945 220.548345,120.330756 C228.302281,121.850701 235.388555,124.493115 240.537314,130.752038 C243.110756,133.879751 245.130705,137.544197 246.013748,141.579177 C246.244222,142.633953 246.201123,143.806731 246.489584,144.839306 C246.933017,146.426947 246.737381,146.004334 248.589641,146.313237 C250.612194,146.650318 252.632943,146.99463 254.653253,147.344705 C259.9429,148.262 265.263515,149.235854 270.417703,150.724617 C272.114136,151.214134 273.773257,151.812658 275.393909,152.508315 C276.619719,153.033737 281.500732,154.68395 282.093722,156.280276 C283.081113,158.936524 279.77312,157.732427 278.745223,157.154013 C277.844837,156.647117 276.920437,156.174412 275.98255,155.739243 C273.621033,154.643585 271.1606,153.796242 268.644675,153.121764 C265.925849,152.392642 263.151302,151.848319 260.387538,151.303319 C257.810035,150.795571 255.223027,150.333427 252.63262,149.891914 C251.193631,149.646347 249.753371,149.407879 248.31311,149.169411 C247.82109,149.087866 246.953343,148.660869 247.019005,149.302122 C243.99102,148.717018 240.716444,148.801447 237.632097,148.639952 C233.854277,148.442576 230.062507,148.280588 226.272069,148.399057 C223.538306,148.484584 220.802149,148.664295 218.08226,149.032562 C216.492942,149.247889 214.928998,149.562719 213.369646,149.961247 C212.513135,150.180427 209.135519,150.644824 208.668898,151.39344 C208.869414,151.071745 212.597081,151.383554 213.071524,151.365371 C214.969322,151.294049 216.852248,151.10565 218.743016,150.89383 C222.251778,150.500902 225.762045,150.295643 229.281552,150.32563 C229.268187,150.944783 226.864003,152.048231 226.277102,152.458598 C224.961207,153.379369 223.700883,154.383722 222.525103,155.485163 C220.453692,157.425061 217.973567,159.828421 216.540805,162.127049 C216.963075,161.449587 219.04603,160.568061 219.785273,160.050608 C220.969512,159.221083 222.129538,158.336444 223.227309,157.390511 C224.240673,156.517116 225.186297,155.573881 226.11609,154.61051 C227.045976,153.646269 228.307907,151.641947 229.529772,150.999957 C229.603515,150.961151 230.136121,151.383044 230.438662,151.239526 C230.74354,151.09515 231.123597,150.372664 231.20102,150.34313 C232.33838,149.903208 234.498437,150.450445 235.694127,150.505979 C238.794948,150.648995 241.892766,150.83658 244.991484,151.007542 C245.951467,151.060342 246.767158,150.841603 247.129788,151.55137 C247.516074,152.308471 246.808166,154.298477 246.606789,155.123138 C245.859681,158.185712 244.532658,160.931924 242.443832,163.3045 C238.532022,167.748906 233.708387,170.711718 228.259097,172.693627 C207.387043,180.284806 185.181894,183.324975 164.316138,175.42844 C155.677786,172.158872 142.668338,166.31694 144.226035,154.822575 Z" id="Leave-the-Leaf!" fill="#B0CC89" transform="translate(212.291430, 149.382142) rotate(-30.000000) translate(-212.291430, -149.382142) "></path>
        </g>
        <g id="Corner-Plants" transform="translate(133.500000, 849.000000) scale(-1, 1) translate(-133.500000, -849.000000) translate(-16.000000, 701.000000)">
            <path d="M183.396962,0 C180.565472,0 177.742614,0.0568738028 174.914678,0.20404724 C172.759068,0.31679706 169.464972,-0.130211075 167.640956,1.21380669 C165.745848,2.60970932 165.876353,5.46736847 166.1724,7.48539068 C167.737438,18.157211 171.557107,27.6202136 179.547841,35.1809371 C191.851317,46.8231043 205.955959,52.7384787 222.646316,55.3726338 C234.370393,57.2230279 245.193633,54.6537289 253.824195,46.3137345 C260.13005,58.0212567 264.91403,70.9770092 267.314399,84.052995 C268.498588,90.5051782 268.860141,96.8795342 268.651943,103.449456 C268.517884,107.657619 268.285819,111.855803 267.834893,116.04401 C267.639391,117.863972 266.711641,120.618859 267.424084,122.338543 C268.259922,124.358062 271.078717,124.553628 272.344154,122.83145 C273.39733,121.39813 273.203859,118.583376 273.420181,116.887139 C273.778688,114.069392 274.110789,111.249648 274.348439,108.418929 C274.734366,103.837096 275.01975,99.2422915 275,94.6429968 C274.950689,84.309426 272.653912,73.9354448 269.512156,64.1262105 C263.485082,45.3074673 253.705878,28.5825782 238.496772,15.4601954 C229.145135,7.3910999 218.442243,4.1233507 206.299231,2.36924289 C198.739111,1.2771661 191.055595,0 183.396962,0" id="Fill-16" fill="#B0CC89"></path>
            <path d="M227.364736,64 C196.91338,64 176.404356,88.8409726 166.707377,114.658994 C163.051998,124.390757 162.195252,135.077018 160.78646,145.295589 C160.334151,148.574807 160.50171,153.571828 159.186671,156.493171 C158.709427,157.55258 157.615306,157.933497 158.138429,159.376765 C158.455096,160.250864 159.076461,160.786206 160.009505,160.959751 C161.924964,161.316646 164.633336,159.205181 166.275514,158.371772 C179.896665,151.457421 188.846111,140.766258 196.146897,127.685663 C200.672486,119.578067 205.264401,111.161619 207.952825,102.260814 C209.595004,96.8235574 210.550987,91.097059 211.11251,85.4563527 C211.333428,83.2350733 211.547365,80.960848 211.534399,78.7258419 C211.521433,76.5084844 210.502116,75.3363196 209.769544,73.406243 C219.930303,69.5132438 231.399118,68.4523635 241.69153,72.486552 C251.210977,76.2177719 259.118665,83.428228 263.546511,92.4868906 C264.696983,94.8415154 265.584149,97.3255636 266.230448,99.8591261 C266.653335,101.51859 266.673781,103.671726 267.457718,105.171862 C269.358714,108.808955 273.358188,106.377363 272.974199,102.991762 C271.903517,93.5472807 266.565566,84.0655406 259.743022,77.4992603 C251.138168,69.2181191 239.474366,64 227.364736,64" id="Fill-18" fill="#B0CC89" transform="translate(215.500000, 112.500000) rotate(54.000000) translate(-215.500000, -112.500000) "></path>
            <path d="M208.902191,303.086852 C206.596275,284.627097 204.154161,266.2732 199.670771,248.174201 C197.028123,237.508693 193.638498,227.068357 190.559693,216.524512 C190.835336,217.847226 191.079127,219.178487 191.290558,220.513286 C190.218932,217.368706 187.977715,214.361982 186.689853,211.228621 C185.253372,207.734084 184.098979,204.103992 183.002603,200.495396 C180.862083,193.452547 178.842783,186.397563 176.433063,179.435636 C173.74774,171.679177 170.654503,164.051873 167.77241,156.363743 C165.326346,149.838827 163.036195,142.988043 159.849765,136.761958 C158.113251,133.368416 156.556723,129.723149 154.852111,126.263932 C154.281514,125.106351 149.388253,112.173282 149.425232,112.173249 C150.236207,112.172521 153.272582,117.92067 153.775665,118.76511 C155.24594,121.231315 156.494764,123.797942 157.756937,126.369569 C158.305638,123.314239 159.172714,120.322768 160.536792,117.513259 C160.957696,116.645941 163.912532,110.249981 164.872965,110.249119 C165.352667,110.248689 160.908937,122.325697 160.347647,123.386073 C159.891824,124.247409 159.038267,125.339617 158.740583,126.255935 C158.259551,127.735677 158.506925,127.365628 158.901712,128.69976 C159.625232,131.145086 161.229108,133.53901 162.237764,135.886862 C162.791326,137.140172 164.154626,141.484677 165.483102,143.429842 C168.902299,150.110235 171.32893,158.2573 173.930004,165.462099 C174.494036,161.920667 175.466781,158.505653 176.812839,155.172488 C177.131982,154.38093 179.672682,147.036719 180.402508,147.036064 C181.223755,147.035328 178.068416,158.796977 177.640188,159.813135 C176.844981,161.700571 175.595805,163.527778 174.934104,165.44867 C174.208034,167.557039 175.478517,169.453146 176.287042,171.608247 C179.261367,179.536832 181.867883,187.544924 184.248831,195.66096 C198.124055,189.584443 200.898122,171.734507 201.81491,158.572226 C202.47519,149.085902 201.012917,139.427592 198.715118,130.228057 C195.648657,117.950319 190.481703,106.098915 184.998488,94.6892835 C178.609436,81.3947432 169.817511,69.5235387 159.213315,59.1202415 C153.667215,53.679025 147.349549,48.9646257 140.932491,44.5474807 C137.797875,42.3894552 134.577158,40.5988291 130.916782,39.3999209 C129.266556,38.8601894 127.572541,38.4698314 125.859954,38.1711954 C124.558695,37.944352 121.904464,36.7420358 120.825113,37.0501914 C112.0116,39.4915421 105.384574,43.5450449 100.242839,51.0739977 C95.3752134,58.2008052 92.3501619,66.7185774 90.6652392,75.0732854 C88.7894321,84.3767879 88.3305794,93.7556913 89.9251161,103.115715 C91.141582,110.257111 93.2446481,117.257398 95.3508574,124.189029 C102.841649,148.843009 115.98661,175.269899 139.603667,188.776498 C147.248269,193.148945 155.732701,195.701065 164.443684,197.050291 C166.496257,197.368166 168.54679,197.670508 170.624199,197.785406 C172.024716,197.863327 176.629977,196.930619 177.642769,197.53256 C179.031315,198.357664 179.825238,203.044945 180.429246,204.744209 C185.018472,217.65951 189.121186,230.721576 192.842704,243.900745 C196.801776,257.922588 199.9441,272.081468 202.559329,286.398674 C203.671452,292.48831 204.754822,298.567948 205.676369,304.690829 C205.891315,306.115325 205.663874,310.596559 207.055627,311.853627 C207.935737,312.648619 209.180997,312.321272 209.705745,311.346621 C210.618393,309.652011 209.138289,304.976871 208.902191,303.086852" id="Leaf-Copy" fill="#D5E2C1" transform="translate(149.477682, 174.649938) rotate(-60.000000) translate(-149.477682, -174.649938) "></path>
            <path d="M125.225393,37.3341544 C124.69196,36.94624 123.426405,36.8086914 122.837645,36.6924864 C120.390395,36.2100497 117.869376,36 115.374455,36 C107.681258,36.0115189 99.8631417,36.7666814 92.297649,38.0737326 C87.4943162,38.9034289 81.6874473,41.6957348 76.9091681,40.1793115 C68.5847599,37.5370895 60.1716202,37.666846 52.2738193,41.4389321 C45.0531616,44.8881515 39.5716416,51.4389919 36.3727834,58.517328 C35.8901535,59.5858712 33.9321447,63.5185437 33.3778337,66.1695742 C33.1408684,66.7116379 32.9132981,67.2574284 32.7079977,67.8113498 C32.1255014,69.3840122 31.6032034,70.9844554 31.1177898,72.5879477 C30.9104016,73.2719644 30.3887995,74.7822895 31.0081802,75.0743264 C30.0185628,76.9007424 29.1413387,78.7830588 28.4106086,80.7263573 C26.2855757,86.3780494 23.9622018,92.5775648 23.2154652,98.5677079 C22.9388317,100.785765 22.9283927,103.016696 23.1851921,105.239158 C23.3122,106.337514 23.259657,108.546424 24.0043058,109.381541 C25.5847707,111.153751 26.3962291,108.672793 26.2180702,107.491094 C24.8575202,98.4847044 27.4846691,90.0271548 30.5982754,81.5611355 C32.611611,76.0866304 35.9197307,71.0783002 39.6255764,66.5425818 C42.6247017,62.8711163 45.8420021,59.9798838 49.9532291,57.5456788 C54.9806525,54.5690712 60.3556946,52.162647 65.6813255,49.7487694 C69.1839587,48.1605226 72.6907674,46.6149633 76.2911792,45.2465911 C77.0918507,44.9420191 78.3514902,44.1614473 79.2391534,44.1583982 C81.1164339,44.1516224 83.7766396,45.536934 85.5898943,46.0522334 C91.5540441,47.7478765 97.5943986,49.9188419 103.758281,50.7847887 C107.711879,51.3407428 111.415985,50.714998 115.11348,49.3977831 C115.491372,49.2636223 116.124671,48.9177179 116.900637,48.4237623 C119.645747,47.3677543 122.242622,46.0386818 124.50371,44.1214701 C125.806498,43.0166764 126.988541,41.589016 128.066542,40.2823036 C128.389107,39.8916789 128.531773,39.4437987 128.536645,39.0182787 C128.780917,38.8905549 128.94307,38.7414874 128.979606,38.5673494 C129.248585,37.2813032 126.795767,37.2575879 125.225393,37.3341544" id="Twisted-Leaf" fill="#B0CC89" transform="translate(76.000000, 73.000000) rotate(-123.000000) translate(-76.000000, -73.000000) "></path>
        </g>
        <g id="Corner-Plants" transform="translate(1128.500000, 854.000000) scale(-1, 1) translate(-1128.500000, -854.000000) translate(1003.000000, 720.000000)">
            <path d="M144.888685,0.687038818 C141.322692,-0.088908244 137.385287,-0.0295209116 133.752892,0.0344893868 C114.27237,0.298354061 95.1428285,9.48489872 82.6928652,24.163527 C72.0941244,36.6597597 69.1797443,52.1961259 67.0859001,67.9014083 C66.8783034,69.4607703 66.7892813,71.0101751 66.6721661,72.5727376 C66.6469918,72.9080804 66.6094128,73.2071508 66.5692798,73.4887961 C65.7458252,74.2220696 65.313849,75.0769627 65.8012816,76.016136 C63.9872733,79.9701944 62.4527362,84.0245356 61.1360114,88.2061861 C57.2606301,100.514655 53.3184823,113.057118 55.7468891,126 C56.3142228,118.877432 57.50763,111.594127 58.9349028,104.588555 C59.0169929,104.186357 59.1056502,103.78736 59.1979559,103.389785 C59.2074419,103.347822 59.2161981,103.30586 59.2256841,103.264253 C59.7309941,101.118841 60.3877147,99.0377955 61.18636,96.9894659 C61.1947514,96.9670623 61.202778,96.9450143 61.2115342,96.9229663 C61.3169744,96.6534119 61.4289817,96.3852798 61.5395297,96.1171478 C61.7682874,95.5620363 62.0032474,95.0079916 62.2524364,94.4567918 C62.3367155,94.2690282 62.4177111,94.0794866 62.495423,93.8885226 C63.6581833,91.0500215 64.1492644,87.8516402 65.1908963,84.9146344 C65.4400853,84.2467936 65.7005844,83.5814421 65.9734883,82.9196467 C65.9895415,82.8808849 66.0059595,82.8421231 66.0223775,82.8033613 C66.7600937,81.0224526 67.5751569,79.2632362 68.4369203,77.5225117 C68.905381,77.1718775 69.1556645,76.3020487 69.5595477,75.5115215 C69.6430971,75.3557631 70.2961693,74.3170182 70.4906316,73.7185219 C70.9981306,72.7405868 71.5038055,71.7622961 72.014953,70.786139 C71.9996296,70.7918289 71.9843061,70.7975187 71.9689826,70.8032085 C72.480495,69.8658132 72.9934667,68.9323297 73.5024252,68.0027579 C73.6144326,67.7986362 73.7275344,67.5941588 73.8402715,67.3893259 C74.0230587,67.063229 74.205846,66.7374877 74.3882683,66.4124576 C76.0946474,63.3709016 77.9039126,60.3901554 79.7828633,57.4463929 C80.453448,56.3959127 82.0554814,54.8895371 82.3626807,53.7099695 C82.3739909,53.6658735 82.3765448,53.6253337 82.3834769,53.5830157 C86.4606173,47.8793425 91.1543454,42.6184072 96.7831707,38.4499144 C96.1027352,39.1824767 94.6564904,41.6685655 94.2741331,42.1607336 C93.1040759,43.6678205 91.8336864,45.0707129 90.5585539,46.4906747 C88.2749904,49.0343728 86.0454239,51.658795 84.0643168,54.4339971 C80.4414081,59.5093025 77.3157829,64.8506063 74.3612698,70.2993052 C74.3331768,70.3313103 74.3025298,70.3615374 74.2758961,70.3942538 C72.7909779,72.2174804 71.8562456,74.9731238 70.7872504,77.0587927 C75.0176256,75.1071898 79.6953005,73.8358742 84.0369534,72.1029731 C88.3665664,70.3754063 92.5783346,68.4515412 96.6445297,66.1923333 C102.048975,63.1898947 107.65518,59.7998382 112.761548,55.9634876 C118.613293,52.3479726 123.530671,47.3715275 127.87123,42.149354 C133.006785,35.9705821 137.713282,29.7377571 140.624014,22.2353945 C142.053841,18.548757 143.178657,14.7045829 143.845593,10.8156017 C143.874781,10.6459744 143.911995,10.4621226 143.952493,10.2711586 C144.634753,8.92800912 145.244773,7.55463261 145.75665,6.14960656 C146.569525,3.92133695 148.489338,1.47009813 144.888685,0.687038818" id="Fill-10" fill="#69AC73"></path>
            <path d="M246.868866,90.0960171 C247.655916,92.6912022 246.999334,94.975003 243.894024,94.3312656 C242.963107,94.1383525 242.001428,93.8294853 241.081855,93.569223 C235.970874,92.1229576 230.906362,90.534112 225.769322,89.1800999 C215.886453,86.5755338 205.857471,85.3145403 195.732142,84.1460761 C187.760119,83.2263444 179.729043,82.6719883 171.733191,83.0252567 C161.879858,83.4607267 152.266038,85.376488 142.725624,87.5812404 C132.909114,89.8507643 122.828662,92.6594018 113.366366,96.3296036 C102.604255,100.503737 92.6841042,105.659998 82.8417802,111.622252 C58.5204755,126.355853 36.8996378,144.757381 17.9886352,165.887484 C15.266666,168.92949 12.5559901,171.982087 9.84951587,175.038085 C7.81048632,177.340944 5.88853109,179.743386 3.86352859,182.054691 C2.18678051,183.968733 0.223981395,182.877826 1.5151045,180.635742 C2.99728521,178.060997 5.54040404,175.748054 7.4734544,173.515883 C9.19862901,171.524297 10.9256043,169.534168 12.6516792,167.543311 C14.6759448,165.209614 16.7114559,162.888408 18.7886348,160.602858 C28.4545438,149.968556 38.8247414,139.892073 49.7566652,130.543819 C58.0601423,123.443334 67.0253908,117.22663 76.2253148,111.312687 C86.7981245,104.517046 98.0220114,97.4079025 110.123919,93.3850816 C110.242849,93.2076566 110.395493,93.0260313 110.566291,92.8440804 C108.214489,90.72104 115.430117,83.5728605 116.731785,82.1787128 C120.037449,78.6383831 123.673338,75.3429988 127.399498,72.2446614 C130.456983,69.7022995 133.725867,67.4840661 137.305034,65.7126048 C142.608298,63.0883948 148.361604,61.5258538 154.213954,60.5137801 C164.352769,58.7608172 174.997521,57.8110607 185.340033,58.6704263 C204.215093,60.2385678 222.801257,66.0804189 237.785283,78.2058842 C241.621624,81.3103511 245.423419,85.3294357 246.868866,90.0960171 Z" id="Fill-1" fill="#D5E2C1"></path>
            <path d="M96.9657311,110 C104.809555,110 111.789333,111.020165 119.016554,114.140272 C125.255098,116.833109 130.940449,120.397977 136.460352,124.279103 C144.224731,129.737594 150.340465,136.090605 154.621332,144.508218 C157.178847,149.536941 159.054893,156.652755 157.337371,162.137661 C155.314099,168.597757 149.758847,173.985572 142.442342,172.847256 C137.918041,172.144063 133.770552,169.14639 130.331864,166.325051 C126.218266,162.949725 122.925347,158.891194 120.206393,154.383619 C115.77101,147.03079 113.164662,138.718476 109.396901,131.035111 C107.609046,127.388501 105.88132,123.715834 103.739975,120.250199 C102.679871,118.53398 101.551256,116.83418 99.9430605,115.558795 C99.0826597,114.876662 95.4548366,113.695869 96.842192,112.163836 C76.5012378,112.431192 58.4812887,128.067779 54.5765048,147.422722 C54.2128114,149.226751 53.9285621,151.045415 53.6282782,152.86051 C53.4387787,154.006679 53.5153073,158.233334 52.4916454,158.96544 C50.2340498,160.580642 51.1830052,155.673996 51.2799415,154.967591 C51.5302996,153.141787 51.7974211,151.317412 52.0776617,149.496249 C53.6024042,139.590507 58.0082687,130.381891 65.3557491,123.317477 C73.7578675,115.239324 85.0943134,110 96.9657311,110 Z" id="Fill-20" fill="#B0CC89"></path>
        </g>
        <g id="Corner-Plants" transform="translate(74.000000, 56.000000) scale(1, -1) translate(-74.000000, -56.000000) translate(-38.000000, -128.000000)">
            <path d="M165.452652,0.828808733 C161.150204,-0.10725439 156.39964,-0.0356125283 152.017077,0.0416062444 C128.513403,0.359919185 105.433195,11.4421 90.4120439,29.1496516 C77.6244327,44.224472 74.1081697,62.9667551 71.5819012,81.91281 C71.3314312,83.7939451 71.2240241,85.6630684 71.0827221,87.5480644 C71.0523488,87.952605 71.0070089,88.3133882 70.9585876,88.6531508 C69.9650717,89.5377348 69.443883,90.5690344 70.031981,91.7020054 C67.8433407,96.4719806 65.9918882,101.362932 64.4032311,106.407463 C59.7274994,121.255775 54.9712123,136.386364 57.901138,152 C58.5856383,143.407696 60.0255101,134.621486 61.7475458,126.170321 C61.8465892,125.685129 61.9535562,125.203799 62.0649251,124.724185 C62.0763701,124.673563 62.0869347,124.622942 62.0983797,124.57275 C62.7080473,121.984634 63.5003949,119.474166 64.4639778,117.003165 C64.4741022,116.976139 64.4837865,116.949541 64.4943511,116.922944 C64.6215669,116.597767 64.7567062,116.274306 64.8900847,115.950845 C65.1660859,115.281187 65.4495703,114.612815 65.7502222,113.947876 C65.8519068,113.721367 65.9496297,113.492714 66.0433908,113.262345 C67.4462864,109.838121 68.0387864,105.979756 69.2955379,102.436702 C69.5961898,101.631053 69.9104877,100.828406 70.2397522,100.03005 C70.2591207,99.9832898 70.2789294,99.9365295 70.2987381,99.8897692 C71.1888087,97.7413714 72.1722002,95.6191421 73.2119364,93.5192205 C73.7771444,93.0962332 74.0791169,92.0469159 74.5664108,91.0932641 C74.667215,90.905365 75.4551608,89.652276 75.6897837,88.9302804 C76.3020924,87.7505492 76.9122001,86.5703889 77.5289107,85.3928027 C77.5104226,85.3996666 77.4919345,85.4065304 77.4734464,85.4133943 C78.0905972,84.2825683 78.7095088,83.1564612 79.3235782,82.035073 C79.4587175,81.7888309 79.5951774,81.5421599 79.7311971,81.2950598 C79.9517339,80.901673 80.1722707,80.5087153 80.3923672,80.1166155 C82.4511506,76.4474368 84.6340685,72.851616 86.9010633,69.3004104 C87.7101383,68.0331646 89.6430265,66.2159495 90.0136691,64.7929791 C90.0273151,64.7397839 90.0303965,64.6908787 90.0387601,64.6398285 C94.9579187,57.7592069 100.621004,51.4126817 107.412304,46.3840237 C106.591343,47.2677496 104.846418,50.266841 104.385095,50.8605675 C102.973396,52.6786406 101.440643,54.3710187 99.9021683,56.0839885 C97.1469993,59.1525767 94.4569789,62.3185464 92.06673,65.6664092 C87.6956119,71.7889999 83.9244771,78.2324775 80.3597929,84.805511 C80.3258981,84.8441204 80.2889218,84.8805848 80.2567877,84.9200522 C78.4652016,87.1195002 77.3374267,90.4437684 76.0476608,92.9598134 C81.1517004,90.6054988 86.7954169,89.0718482 92.0337155,86.9813644 C97.2574878,84.8973155 102.339078,82.5764624 107.24503,79.8510687 C113.765612,76.2290793 120.52962,72.1394873 126.690563,67.5115089 C133.750821,63.1499352 139.683745,57.1466046 144.920723,50.8468397 C151.116882,43.3930832 156.795373,35.8741197 160.307234,26.8236506 C162.032351,22.3762783 163.389467,17.738862 164.19414,13.0473925 C164.229355,12.8427628 164.274255,12.6209733 164.323117,12.390604 C165.146278,10.7702967 165.882281,9.11352505 166.499872,7.41857299 C167.480622,4.73050172 169.796918,1.77345172 165.452652,0.828808733" id="Fill-10" fill="#69AC73"></path>
            <path d="M191.458696,80.2501154 C186.482788,76.882493 179.865789,76 173.91119,76 C150.653641,76 128.792625,84.612243 109.907279,97.4446709 C99.5590489,104.476045 90.3017729,113.43022 82.1289301,122.753083 C77.4115531,128.134658 73.2051825,133.956572 70.227184,140.431513 C68.2176289,144.801804 66.8383306,149.355304 65.9034263,154.052108 C64.7640263,159.776069 63.8589346,165.616123 63.4494773,171.435316 C63.288303,173.726805 61.9541894,185.886252 65.7715988,186.092137 C65.7497052,186.391895 65.7445811,186.677594 65.7678722,186.933816 C57.4790397,199.869186 52.3577952,215.028929 47.6087424,229.401865 C43.4769033,241.90914 39.7950481,254.522079 37.4049166,267.461077 C34.2582906,284.496004 32.1914394,301.787153 31.2085555,319.066965 C30.9975382,322.7806 30.8526676,326.49605 30.7278274,330.214674 C30.6220859,333.386389 30.5149469,336.558103 30.4106028,339.729817 C30.2941474,343.284278 29.6671513,347.376579 30.2335905,350.910179 C30.7264299,353.987567 33.3951228,353.521832 33.5129757,350.459409 C33.6555172,346.761192 33.6322261,343.055719 33.7943321,339.354781 C34.0100076,334.443022 34.2322046,329.531264 34.4730344,324.620866 C36.1495269,290.509745 42.4390524,256.900184 54.0463991,224.678759 C58.7437458,211.639539 64.1263163,199.295974 71.0442353,187.234027 C77.1264701,176.628692 84.4426668,166.361661 91.9209694,156.799355 C99.1896522,147.506876 106.746679,138.429352 115.652725,130.556299 C122.87995,124.167521 130.829664,118.601829 139.001575,113.422964 C149.381016,106.845534 159.740426,100.427733 170.9835,95.378567 C176.8277,92.754216 182.7823,90.4046804 188.67215,87.8864462 C189.731894,87.433409 190.868034,86.9939764 191.887252,86.4692876 C195.287285,84.7192668 194.167915,82.0835785 191.458696,80.2501154" id="Fill-1" fill="#D5E2C1" transform="translate(112.000000, 214.500000) rotate(13.000000) translate(-112.000000, -214.500000) "></path>
            <path d="M107.416629,184 C116.873201,184 125.288074,185.230676 134.001266,188.994614 C141.522501,192.243116 148.376803,196.543591 155.031639,201.225584 C164.392433,207.810431 171.765607,215.47438 176.926653,225.628962 C180.010012,231.695358 182.271787,240.279515 180.20113,246.896227 C177.761858,254.689358 171.064404,261.188944 162.243572,259.815738 C156.78904,258.967441 151.788796,255.351201 147.643088,251.947681 C142.683704,247.875858 138.713736,242.979853 135.435744,237.542144 C130.088414,228.672064 126.946182,218.644511 122.403741,209.375689 C120.248289,204.976605 118.16533,200.546086 115.583709,196.36532 C114.305639,194.29496 112.944972,192.244408 111.00612,190.705848 C109.968814,189.882957 105.595083,188.458508 107.267689,186.610342 C82.744483,186.932866 61.0194976,205.79605 56.3118609,229.144871 C55.8733895,231.32116 55.5306964,233.515104 55.1686719,235.704742 C54.9402098,237.087423 55.0324733,242.186244 53.7983388,243.069419 C51.0765647,245.017917 52.2206325,239.098789 52.3374996,238.246617 C52.6393331,236.044061 52.9613768,233.843227 53.299237,231.646269 C55.137478,219.696485 60.4492211,208.587678 69.3073985,200.065528 C79.4370552,190.320454 93.1043591,184 107.416629,184 Z" id="Fill-20" fill="#B0CC89"></path>
        </g>
    </g>
</svg>